<svg xmlns="http://www.w3.org/2000/svg" xmlns:xlink="http://www.w3.org/1999/xlink" width="500" zoomAndPan="magnify" viewBox="0 0 375 374.999991" height="500" preserveAspectRatio="xMidYMid meet" version="1.0"><defs><g/></defs><path fill="#434b54" d="M 152.96875 160.921875 C 152.96875 160.921875 154.003906 145.117188 148.097656 132.414062 L 185.609375 132.464844 C 189.421875 162.949219 176.246094 185.328125 150.460938 201.683594 C 181.371094 188.148438 195.734375 163.726562 191.078125 126.804688 L 138.9375 126.804688 L 144.109375 135.8125 L 126.234375 135.8125 C 126.234375 135.8125 142.335938 150.878906 146.324219 159.742188 C 146.324219 159.742188 144.699219 149.105469 138.789062 142.460938 L 147.355469 142.460938 C 147.355469 142.457031 151.933594 152.5 152.96875 160.921875 Z M 152.96875 160.921875 " fill-opacity="1" fill-rule="nonzero"/><path fill="#434b54" d="M 168.203125 145.058594 L 167.691406 145.058594 C 167.335938 145.058594 167.046875 145.097656 166.816406 145.171875 C 166.589844 145.246094 166.417969 145.34375 166.304688 145.457031 C 166.164062 145.597656 166.074219 145.785156 166.03125 146.019531 C 165.984375 146.253906 165.960938 146.464844 165.960938 146.65625 C 165.960938 146.898438 166 147.097656 166.066406 147.253906 C 166.136719 147.414062 166.222656 147.542969 166.324219 147.644531 C 166.425781 147.746094 166.535156 147.824219 166.648438 147.875 C 166.761719 147.925781 166.863281 147.960938 166.953125 147.988281 L 168.207031 148.386719 L 168.207031 145.058594 Z M 168.203125 145.058594 " fill-opacity="1" fill-rule="nonzero"/><path fill="#434b54" d="M 170.90625 154.3125 C 171.210938 154.269531 171.445312 154.175781 171.609375 154.039062 C 171.722656 153.933594 171.820312 153.792969 171.894531 153.609375 C 171.972656 153.425781 172.011719 153.199219 172.011719 152.933594 C 172.011719 152.566406 171.921875 152.21875 171.742188 151.898438 C 171.566406 151.574219 171.199219 151.324219 170.640625 151.148438 L 169.6875 150.84375 L 169.6875 154.378906 L 170.144531 154.378906 C 170.347656 154.378906 170.601562 154.359375 170.90625 154.3125 Z M 170.90625 154.3125 " fill-opacity="1" fill-rule="nonzero"/><path fill="#434b54" d="M 179.996094 149.695312 C 179.996094 143.578125 175.039062 138.617188 168.921875 138.617188 C 162.800781 138.617188 157.84375 143.578125 157.84375 149.695312 C 157.84375 155.8125 162.800781 160.773438 168.921875 160.773438 C 175.039062 160.773438 179.996094 155.8125 179.996094 149.695312 Z M 163.867188 156.375 L 163.867188 154.378906 L 168.203125 154.378906 L 168.203125 150.367188 L 165.65625 149.546875 C 165.300781 149.433594 164.96875 149.296875 164.667969 149.140625 C 164.363281 148.980469 164.085938 148.691406 163.832031 148.273438 C 163.628906 147.933594 163.5 147.578125 163.449219 147.21875 C 163.398438 146.855469 163.375 146.523438 163.375 146.21875 C 163.375 145.824219 163.410156 145.429688 163.476562 145.027344 C 163.546875 144.628906 163.722656 144.269531 164 143.953125 C 164.179688 143.75 164.378906 143.589844 164.601562 143.46875 C 164.824219 143.347656 165.050781 143.257812 165.285156 143.203125 C 165.519531 143.148438 165.753906 143.109375 165.988281 143.089844 C 166.222656 143.070312 166.449219 143.058594 166.664062 143.058594 L 168.203125 143.058594 L 168.203125 141.765625 L 169.6875 141.765625 L 169.6875 143.058594 L 173.757812 143.058594 L 173.757812 145.058594 L 169.6875 145.058594 L 169.6875 148.863281 L 171.933594 149.585938 C 172.273438 149.699219 172.625 149.832031 172.988281 149.984375 C 173.347656 150.136719 173.691406 150.421875 174.003906 150.84375 C 174.285156 151.210938 174.453125 151.574219 174.507812 151.9375 C 174.566406 152.296875 174.59375 152.695312 174.59375 153.125 C 174.59375 153.367188 174.589844 153.605469 174.578125 153.847656 C 174.5625 154.089844 174.523438 154.324219 174.460938 154.550781 C 174.398438 154.777344 174.304688 154.996094 174.1875 155.207031 C 174.066406 155.414062 173.898438 155.601562 173.683594 155.765625 C 173.492188 155.917969 173.28125 156.035156 173.054688 156.117188 C 172.824219 156.203125 172.589844 156.261719 172.351562 156.300781 C 172.109375 156.339844 171.867188 156.359375 171.628906 156.367188 C 171.386719 156.375 171.160156 156.375 170.945312 156.375 L 169.6875 156.375 L 169.6875 157.667969 L 168.203125 157.667969 L 168.203125 156.375 Z M 163.867188 156.375 " fill-opacity="1" fill-rule="nonzero"/><path fill="#434b54" d="M 177.90625 93.046875 L 179.738281 108.300781 L 155.488281 97.988281 C 155.613281 98.28125 160.914062 110.304688 164.835938 122.695312 L 170.414062 122.695312 C 170.144531 119.878906 169.617188 117.007812 168.699219 114.28125 L 180.324219 119.230469 C 180.324219 119.230469 180.359375 120.542969 180.332031 122.695312 L 185.597656 122.695312 C 186.648438 117.398438 187.304688 111.679688 187.109375 105.976562 L 238.003906 127.699219 C 227.039062 166.4375 201.640625 188.808594 165.09375 198.546875 C 160.394531 199.796875 155.515625 200.84375 150.457031 201.679688 C 153.9375 201.640625 157.34375 201.480469 160.667969 201.195312 C 204.808594 197.453125 234.796875 172.414062 248.675781 123.144531 Z M 177.90625 93.046875 " fill-opacity="1" fill-rule="nonzero"/><path fill="#434b54" d="M 206.433594 134.511719 C 205.953125 134.304688 205.53125 134.191406 205.179688 134.160156 C 204.824219 134.132812 204.539062 134.164062 204.316406 134.253906 C 204.046875 134.363281 203.816406 134.566406 203.621094 134.859375 C 203.425781 135.152344 203.273438 135.429688 203.164062 135.6875 C 203.023438 136.015625 202.957031 136.308594 202.960938 136.566406 C 202.964844 136.820312 203.003906 137.046875 203.085938 137.246094 C 203.164062 137.4375 203.269531 137.605469 203.394531 137.742188 C 203.519531 137.875 203.632812 137.988281 203.742188 138.074219 L 205.21875 139.34375 L 207.132812 134.808594 Z M 206.433594 134.511719 " fill-opacity="1" fill-rule="nonzero"/><path fill="#434b54" d="M 204.402344 148.625 C 204.675781 148.742188 205.035156 148.855469 205.472656 148.972656 C 205.910156 149.089844 206.28125 149.097656 206.585938 149 C 206.800781 148.929688 207.011719 148.792969 207.222656 148.585938 C 207.429688 148.378906 207.609375 148.09375 207.761719 147.730469 C 207.976562 147.230469 208.054688 146.710938 207.996094 146.164062 C 207.941406 145.625 207.585938 145.066406 206.933594 144.503906 L 205.816406 143.539062 L 203.777344 148.359375 Z M 204.402344 148.625 " fill-opacity="1" fill-rule="nonzero"/><path fill="#434b54" d="M 195.671875 148.121094 C 195.488281 150.144531 195.230469 152.125 194.894531 154.058594 C 196.117188 155.09375 197.511719 155.964844 199.058594 156.621094 C 207.363281 160.152344 216.949219 156.261719 220.46875 147.929688 C 223.984375 139.597656 220.113281 129.980469 211.804688 126.445312 C 206.164062 124.046875 199.933594 125.078125 195.414062 128.59375 C 196.03125 134.332031 196.191406 139.804688 195.902344 145.011719 L 201.765625 147.503906 L 204.078125 142.035156 L 201.085938 139.449219 C 200.667969 139.089844 200.296875 138.710938 199.976562 138.324219 C 199.65625 137.933594 199.441406 137.375 199.339844 136.65625 C 199.261719 136.074219 199.289062 135.523438 199.433594 135 C 199.570312 134.484375 199.726562 134.011719 199.902344 133.597656 C 200.128906 133.0625 200.402344 132.546875 200.726562 132.042969 C 201.050781 131.539062 201.496094 131.148438 202.058594 130.878906 C 202.414062 130.703125 202.777344 130.601562 203.152344 130.5625 C 203.523438 130.527344 203.882812 130.535156 204.234375 130.597656 C 204.585938 130.652344 204.925781 130.738281 205.253906 130.847656 C 205.585938 130.953125 205.894531 131.074219 206.1875 131.195312 L 208.277344 132.085938 L 209.023438 130.328125 L 211.035156 131.179688 L 210.292969 132.945312 L 215.820312 135.292969 L 214.667969 138.011719 L 209.144531 135.664062 L 206.957031 140.84375 L 209.585938 143.125 C 209.984375 143.476562 210.386719 143.863281 210.789062 144.277344 C 211.195312 144.695312 211.488281 145.28125 211.679688 146.035156 C 211.847656 146.695312 211.863281 147.289062 211.734375 147.8125 C 211.605469 148.339844 211.414062 148.894531 211.164062 149.484375 C 211.027344 149.8125 210.878906 150.136719 210.722656 150.457031 C 210.566406 150.777344 210.378906 151.074219 210.164062 151.347656 C 209.945312 151.621094 209.695312 151.867188 209.410156 152.085938 C 209.128906 152.296875 208.792969 152.457031 208.402344 152.554688 C 208.058594 152.652344 207.707031 152.691406 207.347656 152.675781 C 206.992188 152.652344 206.640625 152.601562 206.292969 152.515625 C 205.941406 152.425781 205.601562 152.316406 205.273438 152.1875 C 204.941406 152.054688 204.632812 151.929688 204.335938 151.804688 L 202.632812 151.082031 L 201.886719 152.84375 L 199.875 151.984375 L 200.617188 150.222656 Z M 195.671875 148.121094 " fill-opacity="1" fill-rule="nonzero"/><g fill="#434b54" fill-opacity="1"><g transform="translate(55.778591, 244.56643)"><g><path d="M 20.6875 -1.984375 C 19.6875 -1.191406 18.390625 -0.578125 16.796875 -0.140625 C 15.203125 0.296875 13.242188 0.515625 10.921875 0.515625 C 8.597656 0.515625 6.128906 0.300781 3.515625 -0.125 L 3.515625 -27.0625 C 6.160156 -27.476562 8.453125 -27.6875 10.390625 -27.6875 C 12.335938 -27.6875 13.929688 -27.503906 15.171875 -27.140625 C 16.421875 -26.773438 17.441406 -26.28125 18.234375 -25.65625 C 19.785156 -24.4375 20.5625 -22.863281 20.5625 -20.9375 C 20.5625 -19.007812 19.859375 -17.410156 18.453125 -16.140625 C 20.117188 -15.628906 21.40625 -14.648438 22.3125 -13.203125 C 23.144531 -11.910156 23.5625 -10.476562 23.5625 -8.90625 C 23.5625 -7.332031 23.332031 -5.984375 22.875 -4.859375 C 22.425781 -3.742188 21.695312 -2.785156 20.6875 -1.984375 Z M 8.9375 -16.90625 C 9.507812 -16.8125 10.222656 -16.765625 11.078125 -16.765625 C 11.929688 -16.765625 12.632812 -16.875 13.1875 -17.09375 C 13.738281 -17.320312 14.164062 -17.609375 14.46875 -17.953125 C 14.957031 -18.503906 15.203125 -19.28125 15.203125 -20.28125 C 15.203125 -22.363281 13.976562 -23.40625 11.53125 -23.40625 C 10.488281 -23.40625 9.625 -23.363281 8.9375 -23.28125 Z M 11.953125 -12.53125 C 10.804688 -12.53125 9.800781 -12.453125 8.9375 -12.296875 L 8.9375 -4.265625 C 9.882812 -4.023438 10.882812 -3.90625 11.9375 -3.90625 C 12.988281 -3.90625 13.910156 -4.03125 14.703125 -4.28125 C 15.503906 -4.53125 16.175781 -4.875 16.71875 -5.3125 C 17.820312 -6.207031 18.375 -7.351562 18.375 -8.75 C 18.375 -11.269531 16.234375 -12.53125 11.953125 -12.53125 Z M 11.953125 -12.53125 "/></g></g></g><g fill="#434b54" fill-opacity="1"><g transform="translate(86.105833, 244.56643)"><g><path d="M 19.015625 -27.28125 C 19.859375 -27.21875 20.554688 -27.1875 21.109375 -27.1875 L 22.8125 -27.1875 C 23.382812 -27.1875 23.984375 -27.238281 24.609375 -27.34375 L 24.609375 -10.4375 C 24.609375 -7.09375 23.59375 -4.40625 21.5625 -2.375 C 19.644531 -0.445312 17.234375 0.515625 14.328125 0.515625 C 11.148438 0.515625 8.582031 -0.3125 6.625 -1.96875 C 4.425781 -3.8125 3.328125 -6.476562 3.328125 -9.96875 L 3.328125 -27.28125 C 4.460938 -27.21875 5.53125 -27.1875 6.53125 -27.1875 C 7.53125 -27.1875 8.359375 -27.238281 9.015625 -27.34375 L 9.015625 -9.703125 C 9.015625 -7.992188 9.539062 -6.660156 10.59375 -5.703125 C 11.570312 -4.828125 12.796875 -4.390625 14.265625 -4.390625 C 16.441406 -4.390625 17.894531 -5.507812 18.625 -7.75 C 18.882812 -8.550781 19.015625 -9.546875 19.015625 -10.734375 Z M 19.015625 -27.28125 "/></g></g></g><g fill="#434b54" fill-opacity="1"><g transform="translate(119.928169, 244.56643)"><g><path d="M 10.140625 0.515625 C 7.929688 0.515625 5.851562 0.335938 3.90625 -0.015625 L 3.90625 -27.375 C 5.707031 -27.582031 7.796875 -27.6875 10.171875 -27.6875 C 12.546875 -27.6875 14.695312 -27.363281 16.625 -26.71875 C 18.550781 -26.070312 20.164062 -25.148438 21.46875 -23.953125 C 24.082031 -21.554688 25.390625 -18.195312 25.390625 -13.875 C 25.390625 -9.039062 23.929688 -5.367188 21.015625 -2.859375 C 18.398438 -0.609375 14.773438 0.515625 10.140625 0.515625 Z M 9.21875 -4.46875 C 10.101562 -4.3125 10.988281 -4.234375 11.875 -4.234375 C 12.757812 -4.234375 13.710938 -4.40625 14.734375 -4.75 C 15.753906 -5.09375 16.640625 -5.632812 17.390625 -6.375 C 19.003906 -7.925781 19.8125 -10.1875 19.8125 -13.15625 C 19.8125 -18.039062 18.03125 -21.039062 14.46875 -22.15625 C 13.300781 -22.519531 11.945312 -22.703125 10.40625 -22.703125 L 9.859375 -22.703125 C 9.648438 -22.703125 9.4375 -22.695312 9.21875 -22.6875 Z M 9.21875 -4.46875 "/></g></g></g><g fill="#434b54" fill-opacity="1"><g transform="translate(153.668748, 244.56643)"><g><path d="M 25.921875 -16.390625 C 25.660156 -15.929688 25.53125 -14.820312 25.53125 -13.0625 L 25.53125 -6.71875 C 25.53125 -4.800781 24.535156 -3.132812 22.546875 -1.71875 C 20.484375 -0.226562 17.960938 0.515625 14.984375 0.515625 C 10.835938 0.515625 7.53125 -0.785156 5.0625 -3.390625 C 2.675781 -5.867188 1.484375 -9.03125 1.484375 -12.875 C 1.484375 -16.96875 2.695312 -20.375 5.125 -23.09375 C 7.84375 -26.15625 11.578125 -27.6875 16.328125 -27.6875 C 19.503906 -27.6875 22.019531 -27.078125 23.875 -25.859375 L 23.546875 -19.828125 L 23.375 -19.78125 C 22.90625 -20.613281 21.96875 -21.296875 20.5625 -21.828125 C 19.226562 -22.328125 17.828125 -22.578125 16.359375 -22.578125 C 14.898438 -22.578125 13.617188 -22.347656 12.515625 -21.890625 C 11.421875 -21.429688 10.492188 -20.769531 9.734375 -19.90625 C 8.117188 -18.144531 7.3125 -15.820312 7.3125 -12.9375 C 7.3125 -10.414062 8.019531 -8.394531 9.4375 -6.875 C 10.851562 -5.351562 12.679688 -4.59375 14.921875 -4.59375 C 17.390625 -4.59375 19.050781 -5.234375 19.90625 -6.515625 C 20.175781 -6.929688 20.3125 -7.394531 20.3125 -7.90625 L 20.3125 -11.296875 L 17.6875 -11.296875 C 16.257812 -11.296875 15.488281 -11.175781 15.375 -10.9375 L 15.3125 -10.953125 L 15.125 -16.296875 C 15.507812 -16.179688 17.054688 -16.125 19.765625 -16.125 L 22.171875 -16.125 C 23.671875 -16.125 24.898438 -16.226562 25.859375 -16.4375 Z M 25.921875 -16.390625 "/></g></g></g><g fill="#434b54" fill-opacity="1"><g transform="translate(187.409327, 244.56643)"><g><path d="M 17.1875 -4.90625 C 18.03125 -4.90625 18.617188 -4.988281 18.953125 -5.15625 L 19.03125 -5.125 L 18.828125 0 L 3.515625 0 L 3.515625 -27.328125 C 3.878906 -27.296875 4.285156 -27.273438 4.734375 -27.265625 L 6.171875 -27.21875 C 7.128906 -27.195312 8.164062 -27.1875 9.28125 -27.1875 C 12.394531 -27.1875 15.476562 -27.238281 18.53125 -27.34375 C 18.382812 -26.144531 18.3125 -24.546875 18.3125 -22.546875 C 18.3125 -22.328125 18.328125 -22.160156 18.359375 -22.046875 L 18.3125 -22 C 17.601562 -22.195312 16.59375 -22.296875 15.28125 -22.296875 L 8.84375 -22.296875 L 8.84375 -17.09375 L 13.6875 -17.09375 C 15.1875 -17.09375 16.085938 -17.128906 16.390625 -17.203125 L 16.453125 -12.15625 C 15.796875 -12.226562 14.953125 -12.265625 13.921875 -12.265625 L 8.84375 -12.265625 L 8.84375 -4.90625 Z M 17.1875 -4.90625 "/></g></g></g><g fill="#434b54" fill-opacity="1"><g transform="translate(214.241475, 244.56643)"><g><path d="M 13.328125 0.125 C 12.671875 0.0390625 10.988281 0 8.28125 0 L 7.625 0 L 7.625 -22.609375 L 3.578125 -22.609375 C 2.378906 -22.609375 1.671875 -22.546875 1.453125 -22.421875 C 1.234375 -22.296875 1.0625 -22.1875 0.9375 -22.09375 L 0.875 -22.109375 L 0.875 -27.34375 L 0.9375 -27.40625 C 1.382812 -27.257812 2.597656 -27.1875 4.578125 -27.1875 L 17.390625 -27.1875 C 18.585938 -27.1875 19.296875 -27.242188 19.515625 -27.359375 C 19.734375 -27.484375 19.90625 -27.59375 20.03125 -27.6875 L 20.09375 -27.671875 L 20.09375 -22.4375 L 20.03125 -22.375 C 19.582031 -22.53125 18.367188 -22.609375 16.390625 -22.609375 L 13.328125 -22.609375 Z M 13.328125 0.125 "/></g></g></g><g fill="#434b54" fill-opacity="1"><g transform="translate(241.073622, 244.56643)"><g><path d="M 5.5 0.15625 C 4.320312 0.0507812 2.953125 0 1.390625 0 L -0.21875 0 L 8.671875 -24.921875 C 9.066406 -26.035156 9.265625 -26.679688 9.265625 -26.859375 C 9.265625 -27.046875 9.253906 -27.160156 9.234375 -27.203125 L 9.265625 -27.25 C 10.148438 -27.207031 11.085938 -27.1875 12.078125 -27.1875 C 12.898438 -27.1875 13.878906 -27.195312 15.015625 -27.21875 L 15.046875 -27.1875 C 15.015625 -27.132812 15 -27.054688 15 -26.953125 C 15 -26.703125 15.203125 -26.015625 15.609375 -24.890625 L 24.6875 0.0625 C 24.414062 0.0507812 24.097656 0.046875 23.734375 0.046875 C 23.734375 0.046875 23.378906 0.03125 22.671875 0 C 22.328125 0 22.019531 0 21.75 0 L 18.578125 0 L 16.65625 -5.890625 L 7.421875 -5.890625 Z M 15.0625 -10.796875 L 11.984375 -20.296875 L 8.96875 -10.796875 Z M 15.0625 -10.796875 "/></g></g></g><g fill="#434b54" fill-opacity="1"><g transform="translate(271.400875, 244.56643)"><g><path d="M 3.125 -27.328125 C 5.019531 -27.566406 6.960938 -27.6875 8.953125 -27.6875 C 12.660156 -27.6875 15.476562 -26.816406 17.40625 -25.078125 C 19.332031 -23.347656 20.296875 -20.753906 20.296875 -17.296875 C 20.296875 -14.203125 19.238281 -11.753906 17.125 -9.953125 C 15.15625 -8.265625 12.613281 -7.421875 9.5 -7.421875 C 9.144531 -7.421875 8.757812 -7.441406 8.34375 -7.484375 L 8.34375 0 L 3.125 0 Z M 9.5625 -22.765625 C 9.15625 -22.765625 8.75 -22.753906 8.34375 -22.734375 L 8.34375 -11.984375 C 8.78125 -11.921875 9.3125 -11.890625 9.9375 -11.890625 C 10.5625 -11.890625 11.210938 -12.019531 11.890625 -12.28125 C 12.578125 -12.550781 13.148438 -12.925781 13.609375 -13.40625 C 14.578125 -14.40625 15.0625 -15.710938 15.0625 -17.328125 C 15.0625 -20.953125 13.226562 -22.765625 9.5625 -22.765625 Z M 9.5625 -22.765625 "/></g></g></g><g fill="#434b54" fill-opacity="1"><g transform="translate(298.233012, 244.56643)"><g><path d="M 3.125 -27.328125 C 5.019531 -27.566406 6.960938 -27.6875 8.953125 -27.6875 C 12.660156 -27.6875 15.476562 -26.816406 17.40625 -25.078125 C 19.332031 -23.347656 20.296875 -20.753906 20.296875 -17.296875 C 20.296875 -14.203125 19.238281 -11.753906 17.125 -9.953125 C 15.15625 -8.265625 12.613281 -7.421875 9.5 -7.421875 C 9.144531 -7.421875 8.757812 -7.441406 8.34375 -7.484375 L 8.34375 0 L 3.125 0 Z M 9.5625 -22.765625 C 9.15625 -22.765625 8.75 -22.753906 8.34375 -22.734375 L 8.34375 -11.984375 C 8.78125 -11.921875 9.3125 -11.890625 9.9375 -11.890625 C 10.5625 -11.890625 11.210938 -12.019531 11.890625 -12.28125 C 12.578125 -12.550781 13.148438 -12.925781 13.609375 -13.40625 C 14.578125 -14.40625 15.0625 -15.710938 15.0625 -17.328125 C 15.0625 -20.953125 13.226562 -22.765625 9.5625 -22.765625 Z M 9.5625 -22.765625 "/></g></g></g></svg>